<svg width="436" height="186" viewBox="0 0 436 186" fill="none" xmlns="http://www.w3.org/2000/svg">
<g clip-path="url(#clip0_6147_24299)">
<mask id="mask0_6147_24299" style="mask-type:alpha" maskUnits="userSpaceOnUse" x="0" y="-25" width="437" height="228">
<rect y="-25" width="436.717" height="227.284" fill="#D9D9D9"/>
</mask>
<g mask="url(#mask0_6147_24299)">
<rect x="-27.041" y="98.7738" width="85.9581" height="85.9581" rx="15.9922" fill="#F1F3FD"/>
<path fill-rule="evenodd" clip-rule="evenodd" d="M15.597 136.152L21.335 141.89L15.8716 147.354L10.1335 141.616L15.597 136.152ZM9.71391 130.269L6.11638 126.672C5.91117 126.466 5.91117 126.134 6.11638 125.928L11.2564 120.788C11.4616 120.583 11.7943 120.583 11.9995 120.788L29.5714 138.36C31.5209 140.31 31.5209 143.471 29.5714 145.42L21.7547 153.237L25.3522 156.834C25.5574 157.04 25.5574 157.372 25.3522 157.577L20.2122 162.717C20.007 162.923 19.6743 162.923 19.4691 162.717L1.89717 145.146C-0.0523124 143.196 -0.0523145 140.035 1.89718 138.086L9.71391 130.269Z" fill="#5A69EA"/>
<rect x="168.862" y="98.7738" width="85.9581" height="85.9581" rx="15.9922" fill="#E8F6FD"/>
<path fill-rule="evenodd" clip-rule="evenodd" d="M206.584 122.273C205.901 122.273 205.347 122.826 205.347 123.509V135.259H205.347C198.175 135.259 192.36 141.074 192.36 148.246C192.36 155.419 198.175 161.233 205.347 161.233H217.097C217.78 161.233 218.334 160.679 218.334 159.996V148.246H218.334C225.507 148.246 231.321 142.432 231.321 135.259C231.321 128.087 225.507 122.273 218.334 122.273H206.584ZM218.334 148.246V136.496C218.334 135.813 217.78 135.259 217.097 135.259H205.347V147.01C205.347 147.693 205.901 148.246 206.584 148.246H218.334Z" fill="#21A7EA"/>
<path d="M206.445 122.273C205.839 122.273 205.347 122.764 205.347 123.37L205.347 135.259H217.237C217.843 135.259 218.334 135.751 218.334 136.357L218.334 148.246C225.507 148.246 231.321 142.432 231.321 135.259C231.321 128.087 225.507 122.273 218.334 122.273H206.445Z" fill="#21A7EA"/>
<mask id="mask1_6147_24299" style="mask-type:alpha" maskUnits="userSpaceOnUse" x="386" y="0" width="87" height="87">
<rect x="386.754" y="0.476562" width="85.9581" height="85.9581" rx="17.9912" fill="#21A7EA"/>
</mask>
<g mask="url(#mask1_6147_24299)">
<circle cx="429.734" cy="43.4557" r="59.2429" fill="#FFB423" fill-opacity="0.1"/>
</g>
<path fill-rule="evenodd" clip-rule="evenodd" d="M408.366 52.4059C408.366 53.4712 409.445 54.1972 410.432 53.7961L423.618 48.4359C424.183 48.206 424.553 47.6563 424.553 47.0458L424.553 40.9928C424.553 40.3822 424.923 39.8325 425.489 39.6026L438.723 34.223C439.288 33.9931 439.658 33.4434 439.658 32.8329L439.658 25.7363C439.658 24.9075 438.986 24.2356 438.158 24.2356L424.972 24.2356C424.143 24.2356 423.471 24.9075 423.471 25.7363L423.471 36.9479C423.471 37.7767 422.799 38.4485 421.97 38.4485L409.867 38.4485C409.038 38.4485 408.366 39.1204 408.366 39.9491L408.366 52.4059Z" fill="#FFB423"/>
<path fill-rule="evenodd" clip-rule="evenodd" d="M451.109 34.5052C451.109 33.44 450.03 32.7139 449.043 33.115L435.857 38.4752C435.291 38.7051 434.921 39.2548 434.921 39.8654V45.9183C434.921 46.5288 434.551 47.0785 433.986 47.3084L420.752 52.6881C420.186 52.918 419.816 53.4677 419.816 54.0782V61.1748C419.816 62.0036 420.488 62.6754 421.317 62.6754H434.503C435.332 62.6754 436.004 62.0036 436.004 61.1748V49.9632C436.004 49.1345 436.676 48.4626 437.504 48.4626H449.608C450.437 48.4626 451.109 47.7908 451.109 46.962V34.5052Z" fill="#FFB423"/>
<mask id="mask2_6147_24299" style="mask-type:alpha" maskUnits="userSpaceOnUse" x="70" y="98" width="87" height="87">
<rect x="70.9077" y="98.7738" width="85.9581" height="85.9581" rx="15.9922" fill="#21A7EA"/>
</mask>
<g mask="url(#mask2_6147_24299)">
<circle cx="113.887" cy="141.753" r="59.2429" fill="#FFF0F0"/>
</g>
<mask id="mask3_6147_24299" style="mask-type:alpha" maskUnits="userSpaceOnUse" x="94" y="122" width="40" height="40">
<circle cx="113.886" cy="141.753" r="19.4803" fill="#FF3030"/>
</mask>
<g mask="url(#mask3_6147_24299)">
<rect x="89.2188" y="146.768" width="20.3451" height="20.3451" rx="2.14106" transform="rotate(-15 89.2188 146.768)" fill="#FF3030"/>
<rect x="113.636" y="146.768" width="20.3451" height="20.3451" rx="2.14106" transform="rotate(-15 113.636 146.768)" fill="#FF3030"/>
<rect x="113.636" y="122.351" width="20.3451" height="20.3451" rx="2.14106" transform="rotate(-15 113.636 122.351)" fill="#FF3030"/>
<rect x="89.2188" y="122.351" width="20.3451" height="20.3451" rx="2.14106" transform="rotate(-15 89.2188 122.351)" fill="#FF3030"/>
</g>
<mask id="mask4_6147_24299" style="mask-type:alpha" maskUnits="userSpaceOnUse" x="266" y="98" width="87" height="87">
<rect x="266.814" y="98.7738" width="85.9581" height="85.9581" rx="15.9922" fill="#21A7EA"/>
</mask>
<g mask="url(#mask4_6147_24299)">
<circle cx="309.794" cy="141.753" r="59.2429" fill="#FFF0EB"/>
</g>
<path fill-rule="evenodd" clip-rule="evenodd" d="M301.146 124.212C294.638 127.366 290.15 134.036 290.15 141.753C290.15 152.512 298.872 161.233 309.631 161.233C317.348 161.233 324.017 156.746 327.171 150.238H309.642L309.631 150.238C304.974 150.238 301.193 146.486 301.147 141.84H301.146V124.212ZM328.842 144.998C329.019 143.943 329.111 142.859 329.111 141.753C329.111 130.994 320.389 122.273 309.631 122.273C308.525 122.273 307.441 122.365 306.385 122.542V133.911C307.385 133.497 308.481 133.268 309.631 133.268C314.317 133.268 318.116 137.067 318.116 141.753C318.116 142.902 317.887 143.999 317.473 144.998H328.842Z" fill="#FF4500"/>
<mask id="mask5_6147_24299" style="mask-type:alpha" maskUnits="userSpaceOnUse" x="364" y="98" width="87" height="87">
<rect x="364.768" y="98.7738" width="85.9581" height="85.9581" rx="15.9922" fill="#F10125"/>
</mask>
<g mask="url(#mask5_6147_24299)">
<circle cx="407.747" cy="141.753" r="59.2429" fill="#FFEBEE"/>
</g>
<path d="M406.344 125.926C406.344 124.485 405.169 123.298 403.743 123.505C402.264 123.72 400.813 124.118 399.426 124.693C397.232 125.601 395.24 126.933 393.561 128.612C391.882 130.29 390.551 132.283 389.642 134.476C388.734 136.67 388.266 139.02 388.266 141.394C388.266 143.768 388.734 146.119 389.642 148.312C390.551 150.506 391.882 152.498 393.561 154.177C395.24 155.856 397.232 157.187 399.426 158.096C401.619 159.004 403.97 159.472 406.344 159.472L406.344 150.795C405.109 150.795 403.887 150.551 402.746 150.079C401.606 149.607 400.569 148.914 399.697 148.041C398.824 147.168 398.131 146.132 397.659 144.992C397.186 143.851 396.943 142.629 396.943 141.394C396.943 140.16 397.186 138.938 397.659 137.797C398.131 136.657 398.824 135.62 399.697 134.747C400.569 133.874 401.606 133.182 402.746 132.71C403.08 132.571 403.421 132.453 403.768 132.354C405.154 131.959 406.344 130.826 406.344 129.385L406.344 125.926Z" fill="#F10125"/>
<path d="M421.568 141.394C423.009 141.394 424.197 142.569 423.989 143.995C423.774 145.474 423.376 146.925 422.801 148.312C421.893 150.506 420.561 152.498 418.882 154.177C417.204 155.856 415.211 157.187 413.018 158.096C410.824 159.004 408.474 159.472 406.1 159.472L406.1 150.795C407.334 150.795 408.557 150.552 409.697 150.079C410.838 149.607 411.874 148.914 412.747 148.041C413.62 147.169 414.312 146.132 414.785 144.992C414.923 144.658 415.042 144.317 415.14 143.97C415.535 142.584 416.668 141.394 418.109 141.394L421.568 141.394Z" fill="#F10125"/>
<path d="M424.617 123.325C426.058 123.325 427.246 124.499 427.039 125.925C426.824 127.405 426.425 128.855 425.85 130.243C424.942 132.436 423.61 134.429 421.932 136.108C420.253 137.786 418.26 139.118 416.067 140.026C414.68 140.601 413.229 140.999 411.749 141.215C410.323 141.422 409.149 140.234 409.149 138.793L409.149 135.335C409.149 133.894 410.339 132.76 411.725 132.366C412.071 132.267 412.412 132.148 412.746 132.01C413.887 131.537 414.923 130.845 415.796 129.972C416.669 129.099 417.361 128.063 417.834 126.922C417.972 126.588 418.091 126.247 418.19 125.901C418.584 124.515 419.718 123.325 421.159 123.325L424.617 123.325Z" fill="#F10125"/>
<rect x="89.3203" y="0.476562" width="85.9581" height="85.9581" rx="17.9912" fill="#E7F0FE"/>
<path fill-rule="evenodd" clip-rule="evenodd" d="M127.837 23.882C126.24 23.882 124.946 25.1765 124.946 26.7735V35.8049H115.748C114.151 35.8049 112.856 37.0995 112.856 38.6964V60.0158C112.856 61.6128 114.151 62.9073 115.748 62.9073H136.814C138.411 62.9073 139.706 61.6128 139.706 60.0158V50.9844H148.904C150.5 50.9844 151.795 49.6898 151.795 48.0929V26.7735C151.795 25.1765 150.5 23.882 148.904 23.882H127.837ZM139.706 50.9844V38.6964C139.706 37.0995 138.411 35.8049 136.814 35.8049H124.946V48.0929C124.946 49.6898 126.24 50.9844 127.837 50.9844H139.706Z" fill="#2388FF"/>
<rect x="188.465" y="0.476562" width="85.9581" height="85.9581" rx="17.9912" fill="#E9F8EA"/>
<path d="M224.366 46.9094L215.464 55.9025C214.227 57.1521 212.206 57.1432 210.98 55.8828C209.78 54.6497 209.796 52.6814 211.015 51.4674L222.95 39.5773C224.242 38.2898 226.331 38.2877 227.626 39.5726L233.273 45.1753L242.746 35.5782H236.307C234.631 35.5782 233.273 34.2199 233.273 32.5443C233.273 30.8687 234.631 29.5104 236.307 29.5104H250.017C251.849 29.5104 253.334 30.9953 253.334 32.827V46.4136C253.334 48.1576 251.92 49.5714 250.176 49.5714C248.432 49.5714 247.018 48.1576 247.018 46.4136V39.9743L236.032 50.9112C234.498 52.4378 232.026 52.4595 230.466 50.9599L226.228 46.8862C225.705 46.3837 224.876 46.394 224.366 46.9094Z" fill="#05C168"/>
<rect x="287.61" y="0.476562" width="85.9581" height="85.9581" rx="17.9912" fill="#E0F3FF"/>
<path fill-rule="evenodd" clip-rule="evenodd" d="M325.519 59.4276H314.565C308.116 59.4276 302.888 54.1994 302.888 47.7501C302.888 42.0624 307.223 37.3871 312.769 36.8479C313.16 31.1533 317.903 26.6553 323.697 26.6553H324.058C327.175 26.6553 329.997 27.9152 332.044 29.9536C334.788 27.883 338.203 26.6553 341.905 26.6553H342.728C351.323 26.6553 358.291 33.6233 358.291 42.2187C358.291 51.7229 350.587 59.4276 341.083 59.4276L325.519 59.4276Z" fill="#2388FF"/>
<mask id="mask6_6147_24299" style="mask-type:alpha" maskUnits="userSpaceOnUse" x="-10" y="0" width="87" height="87">
<rect x="-9.82471" y="0.476562" width="85.9581" height="85.9581" rx="15.9922" fill="#21A7EA"/>
</mask>
<g mask="url(#mask6_6147_24299)">
<circle cx="30.8974" cy="42.9633" r="58.3134" fill="#FF398C" fill-opacity="0.13"/>
</g>
<path fill-rule="evenodd" clip-rule="evenodd" d="M52.5578 44.5687C52.3597 48.0305 51.2404 51.3841 49.3066 54.2783C47.166 57.4818 44.1236 59.9787 40.5641 61.4531C37.0045 62.9275 33.0876 63.3133 29.3088 62.5616C25.53 61.81 22.0589 59.9547 19.3346 57.2303C16.6102 54.5059 14.7549 51.0348 14.0032 47.256C13.2516 43.4772 13.6373 39.5604 15.1118 36.0008C16.5862 32.4412 19.083 29.3988 22.2866 27.2583C25.1808 25.3244 28.5344 24.2052 31.9961 24.0071V33.7792C30.4637 33.9555 28.9893 34.494 27.6979 35.3569C26.0961 36.4272 24.8477 37.9484 24.1105 39.7282C23.3733 41.508 23.1804 43.4664 23.5562 45.3558C23.9321 47.2452 24.8597 48.9808 26.2219 50.3429C27.5841 51.7051 29.3196 52.6328 31.209 53.0086C33.0985 53.3844 35.0569 53.1916 36.8367 52.4543C38.6164 51.7171 40.1376 50.4687 41.2079 48.8669C42.0708 47.5755 42.6093 46.1012 42.7856 44.5687H52.5578Z" fill="#FF46AA"/>
<path fill-rule="evenodd" clip-rule="evenodd" d="M42.8429 23.9753H34.874V33.7155H42.8429V41.6843H52.583V33.7155H52.5835V23.9753H50.8012H42.8429Z" fill="#FF46AA"/>
</g>
</g>
<defs>
<clipPath id="clip0_6147_24299">
<rect width="436" height="186" fill="white"/>
</clipPath>
</defs>
</svg>
